<?xml version="1.0" encoding="UTF-8"?>
<svg xmlns="http://www.w3.org/2000/svg" width="769" height="315" viewBox="0 0 769 315" fill="none">
  <g clip-path="url(#clip0_356_3)">
    <path d="M147.521 174.756C147.521 174.756 183.077 137.686 215.607 176.647C215.607 176.647 196.316 167.947 181.564 167.947C166.812 167.569 147.521 174.756 147.521 174.756Z" fill="#652C83"></path>
    <path d="M266.294 257.972V223.929H278.398C281.046 223.929 283.694 224.307 285.585 225.442C287.477 226.577 289.368 227.712 290.881 229.225C292.394 230.738 293.151 232.629 293.907 234.52C294.664 236.412 295.042 238.681 295.042 240.951C295.042 243.599 294.664 245.868 293.907 248.138C293.151 250.407 292.016 251.92 290.503 253.433C288.99 254.946 287.477 256.081 285.207 256.838C283.316 257.594 281.046 257.972 278.398 257.972H266.294ZM289.368 240.951C289.368 239.06 288.99 237.547 288.611 236.033C288.233 234.52 287.477 233.386 286.342 232.251C285.207 231.116 284.072 230.36 282.938 229.603C281.425 228.847 279.911 228.847 278.398 228.847H271.59V253.433H278.398C280.29 253.433 281.803 253.055 283.316 252.677C284.829 251.92 285.964 251.164 286.72 250.029C287.477 248.894 288.233 247.759 288.99 246.246C289.368 243.977 289.368 242.464 289.368 240.951Z" fill="#652C83"></path>
    <path d="M300.337 257.972V223.929H305.633V257.972H300.337Z" fill="#652C83"></path>
    <path d="M337.407 253.433C334.381 256.459 331.355 257.972 327.572 257.972C325.302 257.972 323.033 257.594 321.142 256.459C319.25 255.703 317.359 254.19 316.224 252.677C314.711 251.164 313.576 249.272 312.82 247.003C312.063 244.733 311.685 242.842 311.685 240.572C311.685 238.303 312.063 236.033 312.82 234.142C313.576 232.251 314.711 230.359 316.224 228.846C317.737 227.333 319.25 226.199 321.52 225.064C323.411 224.307 325.681 223.551 327.95 223.551C331.355 223.551 334.002 224.307 336.272 225.442C338.542 226.955 340.055 228.468 341.189 230.738L336.65 234.142C335.894 232.251 334.381 230.738 332.868 229.981C331.355 229.225 329.463 228.468 327.572 228.468C326.059 228.468 324.546 228.846 323.411 229.603C322.276 230.359 321.142 231.116 320.007 232.251C318.872 233.386 318.494 234.52 317.737 236.033C317.359 237.546 316.981 239.059 316.981 240.572C316.981 242.464 317.359 243.977 317.737 245.49C318.116 247.003 318.872 248.138 320.007 249.272C321.142 250.407 322.276 251.164 323.411 251.92C324.924 252.677 326.059 253.055 327.572 253.055C329.463 253.055 330.976 252.677 332.489 251.92C334.002 251.164 335.515 250.029 337.029 248.138V244.355H329.842V240.572H341.568V257.594H337.029V253.433H337.407Z" fill="#652C83"></path>
    <path d="M347.998 257.972V223.929H353.294V257.972H347.998Z" fill="#652C83"></path>
    <path d="M385.824 228.468H374.476V257.594H369.181V228.468H357.833V223.551H385.824V228.468Z" fill="#652C83"></path>
    <path d="M396.793 223.929H401.333L414.572 257.972H408.898L405.493 248.894H392.254L388.85 257.972H383.176L396.793 223.929ZM404.737 244.733L399.441 229.981L393.767 244.733H404.737Z" fill="#652C83"></path>
    <path d="M419.111 257.972V223.929H424.406V253.055H442.563V257.972H419.111Z" fill="#652C83"></path>
    <path d="M481.523 253.433C478.497 256.459 475.471 257.972 471.689 257.972C469.419 257.972 467.15 257.594 465.258 256.459C463.367 255.703 461.476 254.19 460.341 252.677C458.828 251.164 457.693 249.272 456.937 247.003C456.18 244.733 455.802 242.842 455.802 240.572C455.802 238.303 456.18 236.033 456.937 234.142C457.693 232.251 458.828 230.359 460.341 228.846C461.854 227.333 463.367 226.199 465.636 225.064C467.528 224.307 469.797 223.551 472.067 223.551C475.471 223.551 478.119 224.307 480.389 225.442C482.658 226.955 484.171 228.468 485.306 230.738L481.145 233.764C480.389 231.872 478.876 230.359 477.362 229.603C475.849 228.846 473.958 228.09 472.067 228.09C470.554 228.09 469.041 228.468 467.906 229.225C466.771 229.981 465.636 230.738 464.502 231.872C463.367 233.007 462.989 234.142 462.232 235.655C461.854 237.168 461.476 238.681 461.476 240.194C461.476 242.085 461.854 243.599 462.232 245.112C462.61 246.625 463.367 247.759 464.502 248.894C465.636 250.029 466.771 250.785 467.906 251.542C469.419 252.298 470.554 252.677 472.067 252.677C473.958 252.677 475.471 252.298 476.984 251.542C478.497 250.785 480.01 249.651 481.523 247.759V243.977H474.336V240.194H486.062V257.216H481.523V253.433Z" fill="#652C83"></path>
    <path d="M492.115 257.973V223.929H506.867C508.38 223.929 509.893 224.307 511.028 225.064C512.162 225.82 513.297 226.577 514.432 227.712C515.188 228.847 515.945 229.981 516.701 231.116C517.08 232.251 517.458 233.764 517.458 235.277C517.458 236.412 517.458 237.547 517.08 238.681C516.701 239.816 516.323 240.573 515.567 241.707C514.81 242.464 514.432 243.22 513.297 243.977C512.541 244.733 511.406 245.112 510.649 245.49L518.593 258.351H512.541L505.354 246.625H497.41V258.351H492.115V257.973ZM497.41 241.329H506.867C507.623 241.329 508.38 241.329 508.758 240.951C509.515 240.573 509.893 240.194 510.271 239.438C510.649 238.681 511.028 238.303 511.406 237.547C511.784 236.79 511.784 236.033 511.784 235.277C511.784 234.52 511.784 233.764 511.406 233.007C511.028 232.251 510.649 231.494 510.271 231.116C509.893 230.36 509.136 229.981 508.38 229.603C507.623 229.225 506.867 229.225 506.488 229.225H497.41V241.329Z" fill="#652C83"></path>
    <path d="M537.506 257.972C535.236 257.972 532.967 257.594 530.697 256.459C528.806 255.325 526.914 254.19 525.401 252.677C523.888 251.164 522.754 249.272 521.997 247.003C521.241 245.112 520.862 242.842 520.862 240.573C520.862 238.303 521.241 236.033 521.997 234.142C522.754 232.251 523.888 230.36 525.401 228.468C526.914 226.955 528.428 225.442 530.697 224.686C532.588 223.929 534.858 223.173 537.127 223.173C539.397 223.173 541.667 223.551 543.936 224.686C546.206 225.82 547.719 226.955 549.232 228.468C550.745 229.981 551.88 231.873 552.636 234.142C553.393 236.033 553.771 238.303 553.771 240.573C553.771 242.842 553.393 245.112 552.636 247.003C551.88 248.894 550.745 250.785 549.232 252.299C547.719 253.812 546.206 255.325 543.936 256.081C542.045 257.594 540.154 257.972 537.506 257.972ZM526.914 240.951C526.914 242.464 527.293 243.977 527.671 245.49C528.049 247.003 528.806 248.138 529.941 249.272C530.697 250.407 531.832 251.164 533.345 251.92C534.858 252.677 535.993 253.055 537.884 253.055C539.775 253.055 541.288 252.677 542.423 251.92C543.558 251.164 544.693 250.407 545.827 248.894C546.962 247.381 547.34 246.246 548.097 245.112C548.853 243.977 548.853 242.086 548.853 240.573C548.853 239.059 548.475 237.546 548.097 236.033C547.719 234.52 546.962 233.386 545.827 232.251C545.071 231.116 543.936 230.36 542.423 229.603C540.91 228.846 539.775 228.468 537.884 228.468C535.993 228.468 534.48 228.846 533.345 229.603C532.21 230.36 530.697 231.116 529.941 232.251C529.184 233.386 528.427 234.899 527.671 236.033C526.914 237.925 526.914 239.438 526.914 240.951Z" fill="#652C83"></path>
    <path d="M570.414 223.929H575.332L579.492 235.277L583.653 223.929H588.571L582.897 239.06L587.814 251.542L598.405 223.929H604.458L590.462 257.972H585.923L579.492 242.842L573.062 257.972H568.523L554.527 223.929H560.201L570.792 251.542L575.71 239.06L570.414 223.929Z" fill="#652C83"></path>
    <path d="M633.205 228.468H621.857V257.594H616.562V228.468H605.214V223.551H633.205V228.468Z" fill="#652C83"></path>
    <path d="M665.735 223.929V257.972H660.44V242.842H643.418V257.972H638.123V223.929H643.418V238.303H660.44V223.929H665.735Z" fill="#652C83"></path>
    <path d="M266.294 311.307V277.264H271.59V311.307H266.294Z" fill="#652C83"></path>
    <path d="M284.829 287.477V311.307H279.533V277.264H283.694L302.985 301.85V277.264H308.281V311.307H303.742L284.829 287.477Z" fill="#652C83"></path>
    <path d="M340.811 281.803H329.463V310.929H324.168V281.803H312.82V276.885H340.811V281.803Z" fill="#652C83"></path>
    <path d="M368.802 306.39V311.307H345.35V277.264H368.046V282.181H350.646V292.016H365.776V296.555H350.646V306.39H368.802Z" fill="#652C83"></path>
    <path d="M374.098 311.307V277.264H379.394V306.39H397.55V311.307H374.098Z" fill="#652C83"></path>
    <path d="M402.089 311.307V277.264H407.385V306.39H425.541V311.307H402.089Z" fill="#652C83"></path>
    <path d="M430.08 311.307V277.264H435.376V311.307H430.08Z" fill="#652C83"></path>
    <path d="M466.771 307.146C463.745 310.172 460.719 311.685 456.937 311.685C454.667 311.685 452.397 311.307 450.506 310.172C448.615 309.416 446.724 307.903 445.589 306.39C444.076 304.877 442.941 302.985 442.184 300.716C441.428 298.446 441.05 296.555 441.05 294.285C441.05 292.016 441.428 289.746 442.184 287.855C442.941 285.964 444.076 284.072 445.589 282.559C447.102 281.046 448.615 279.911 450.884 278.777C452.776 278.02 455.045 277.264 457.315 277.264C460.719 277.264 463.367 278.02 465.637 279.155C467.906 280.668 469.419 282.181 470.554 284.451L466.393 287.477C465.637 285.585 464.123 284.072 462.61 283.316C461.097 282.559 459.206 281.803 457.315 281.803C455.802 281.803 454.289 282.181 453.154 282.938C452.019 283.694 450.884 284.451 449.75 285.585C448.615 286.72 448.237 287.855 447.48 289.368C447.102 290.881 446.724 292.394 446.724 293.907C446.724 295.798 447.102 297.311 447.48 298.824C447.858 300.337 448.615 301.472 449.75 302.607C450.884 303.742 452.019 304.498 453.154 305.255C454.667 306.011 455.802 306.39 457.315 306.39C459.206 306.39 460.719 306.011 462.232 305.255C463.745 304.498 465.258 303.364 466.771 301.472V297.69H459.584V293.907H471.31V310.929H466.771V307.146Z" fill="#652C83"></path>
    <path d="M500.436 306.39V311.307H476.984V277.264H499.68V282.181H482.28V292.016H497.41V296.555H482.28V306.39H500.436Z" fill="#652C83"></path>
    <path d="M511.406 287.477V311.307H506.11V277.264H510.271L529.562 301.85V277.264H534.858V311.307H530.319L511.406 287.477Z" fill="#652C83"></path>
    <path d="M540.532 293.907C540.532 292.016 540.91 289.746 541.667 287.855C542.423 285.964 543.558 284.072 545.071 282.559C546.584 281.046 548.097 279.533 550.366 278.777C552.636 278.02 554.527 277.264 557.175 277.264C560.201 277.264 562.849 278.02 565.119 279.155C567.388 280.668 568.901 282.181 570.036 284.451L565.875 287.098C565.497 285.964 564.74 285.207 563.984 284.451C563.227 283.694 562.471 283.316 561.714 282.938C560.958 282.559 560.201 282.181 559.066 282.181C557.932 282.181 557.553 281.803 556.419 281.803C554.527 281.803 553.014 282.181 551.88 282.938C550.745 283.694 549.232 284.451 548.475 285.964C547.719 287.477 546.962 288.611 546.584 289.746C546.206 291.259 545.827 292.772 545.827 294.285C545.827 295.798 546.206 297.69 546.584 299.203C546.962 300.716 547.719 301.85 548.853 302.985C549.988 304.12 551.123 304.877 552.258 305.633C553.771 306.39 554.906 306.768 556.797 306.768C557.553 306.768 558.31 306.768 559.445 306.39C560.201 306.011 561.336 306.011 562.093 305.255C562.849 304.498 563.606 304.12 564.362 303.363C565.119 302.607 565.497 301.85 565.875 300.716L570.414 303.363C570.036 304.498 569.279 305.633 568.145 306.768C567.01 307.903 565.875 308.659 564.74 309.416C563.606 310.172 562.093 310.55 560.958 310.929C559.445 311.307 558.31 311.307 556.797 311.307C554.527 311.307 552.258 310.929 550.366 309.794C548.475 308.659 546.584 307.524 545.071 305.633C543.558 304.12 542.423 302.229 541.667 299.959C540.91 298.446 540.532 296.177 540.532 293.907Z" fill="#652C83"></path>
    <path d="M598.784 306.39V311.307H575.332V277.264H598.027V282.181H580.627V292.016H595.758V296.555H580.627V306.39H598.784Z" fill="#652C83"></path>
    <path d="M247.381 1.89136H237.168V314.711H247.381V1.89136Z" fill="#6AB868"></path>
    <path d="M320.385 20.0476C320.007 20.8041 319.25 21.5607 318.872 21.9389C318.116 22.6954 317.359 22.6954 316.224 22.6954C315.468 22.6954 314.333 22.3172 313.198 21.5607C312.063 20.8041 310.929 20.0476 309.416 19.2911C307.903 18.5346 306.011 17.7781 304.12 17.0215C302.229 16.265 299.581 15.8868 296.933 15.8868C294.285 15.8868 292.394 16.265 290.503 16.6433C288.611 17.3998 287.098 18.1563 285.964 19.2911C284.829 20.4259 283.694 21.5607 283.316 23.0737C282.559 24.5867 282.559 26.0998 282.559 27.9911C282.559 30.2606 283.316 32.1519 284.451 33.6649C285.585 35.178 287.477 36.3127 289.368 37.4475C291.259 38.5823 293.907 39.3388 296.555 40.4736C299.203 41.2301 301.85 42.3649 304.877 43.1214C307.524 44.2562 310.55 45.0127 313.198 46.5257C315.846 47.6605 318.116 49.5518 320.385 51.4431C322.276 53.3344 324.168 55.6039 325.302 58.63C326.437 61.2778 327.194 64.6822 327.194 68.843C327.194 73.0038 326.437 77.1647 324.924 80.9473C323.411 84.7299 321.142 88.1342 318.494 90.782C315.468 93.4298 312.063 95.6994 307.903 97.5907C303.742 99.1037 299.203 99.8602 293.907 99.8602C290.881 99.8602 287.855 99.482 284.829 99.1037C281.803 98.3472 279.155 97.5907 276.129 96.4559C273.481 95.3211 270.833 94.1863 268.564 92.295C266.294 90.782 264.025 88.8907 262.133 86.9994L267.429 78.2995C267.807 77.543 268.564 77.1647 269.32 76.7864C270.077 76.4082 270.833 76.0299 271.59 76.0299C272.725 76.0299 273.859 76.4082 274.994 77.543C276.129 78.2995 277.642 79.4342 279.533 80.569C281.424 81.7038 283.316 82.8386 285.585 83.5951C287.855 84.3516 290.881 85.1081 294.285 85.1081C299.203 85.1081 303.363 83.9734 306.011 81.3255C308.659 79.056 310.172 75.2734 310.172 71.1125C310.172 68.4647 309.416 66.5734 308.281 65.0604C307.146 63.5474 305.255 62.0343 303.363 60.8996C301.472 59.7648 298.824 59.0083 296.177 58.2518C293.529 57.4952 290.881 56.7387 288.233 55.9822C285.585 55.2257 282.938 54.0909 280.29 52.9561C277.642 51.8214 275.372 49.9301 273.103 48.0388C271.211 46.1475 269.32 43.4997 268.185 40.4736C267.051 37.4475 266.294 33.6649 266.294 29.5041C266.294 26.0998 267.051 22.6954 268.564 19.2911C270.077 15.8868 271.968 12.8607 274.616 10.5911C276.129 7.56508 279.533 5.29553 283.316 3.78249C287.098 2.26946 291.637 1.51294 296.555 1.51294C302.229 1.51294 307.524 2.26946 312.063 4.16075C316.981 6.05204 320.763 8.3216 324.168 11.7259L320.385 20.0476Z" fill="#6AB868"></path>
    <path d="M354.807 37.8259C357.454 35.1781 360.481 33.2868 363.507 31.7737C366.533 30.2607 370.315 29.5042 374.854 29.5042C378.637 29.5042 382.041 30.2607 384.689 31.3955C387.715 32.5303 389.985 34.4215 391.876 36.6911C393.767 38.9606 395.28 41.6085 396.415 45.0128C397.55 48.0389 397.928 51.8214 397.928 55.604V98.3473C388.85 98.3473 381.663 91.1604 381.663 82.0821V55.2258C381.663 51.0649 380.528 48.0389 378.637 45.7693C376.746 43.4998 373.72 42.365 369.937 42.365C367.289 42.365 364.641 43.1215 361.994 44.2563C359.346 45.391 357.076 47.2823 354.807 49.1736V98.3473C345.728 98.3473 338.542 91.1604 338.542 82.0821V0H354.807V37.8259Z" fill="#6AB868"></path>
    <path d="M425.919 66.5733C426.298 69.9777 426.676 73.0037 427.811 75.6516C428.945 78.2994 430.08 80.1907 431.593 82.082C433.106 83.595 434.998 85.108 437.267 85.8645C439.537 86.6211 441.806 86.9993 444.454 86.9993C447.102 86.9993 449.371 86.6211 451.263 86.2428C453.154 85.4863 455.045 85.108 456.18 84.3515C457.693 83.595 458.828 82.8385 459.963 82.4602C461.097 81.7037 462.232 81.7037 462.989 81.7037C464.502 81.7037 465.258 82.082 466.015 83.2167L470.554 89.2689C468.663 91.5384 466.771 93.0515 464.502 94.5645C462.232 96.0775 459.963 97.2123 457.315 97.9688C455.045 98.7253 452.398 99.4818 449.75 99.8601C447.102 100.238 444.832 100.238 442.185 100.238C437.267 100.238 433.106 99.4818 428.945 97.9688C424.785 96.4558 421.38 94.1862 418.354 91.1602C415.328 88.1341 413.059 84.3515 411.167 79.8124C409.276 75.2733 408.52 69.9777 408.52 63.9255C408.52 59.3864 409.276 54.8473 410.789 50.6865C412.302 46.5256 414.572 43.1213 417.219 40.0952C419.867 37.0692 423.272 34.7996 427.432 32.9083C431.593 31.017 436.132 30.2605 441.05 30.2605C445.211 30.2605 449.371 31.017 452.776 32.1518C456.558 33.6648 459.584 35.5561 462.232 38.2039C464.88 40.8517 466.771 43.8778 468.284 48.0387C469.797 51.8212 470.554 56.3604 470.554 61.2777C470.554 63.9255 470.176 65.4386 469.797 66.1951C469.419 66.9516 468.284 67.3299 466.771 67.3299H425.919V66.5733ZM456.937 56.7386C456.937 54.4691 456.558 52.5778 456.18 50.6865C455.424 48.7952 454.667 47.2821 453.532 45.7691C452.398 44.2561 450.884 43.1213 448.993 42.3648C447.102 41.6083 445.211 41.23 442.563 41.23C437.645 41.23 434.241 42.743 431.215 45.3908C428.567 48.0387 426.676 51.8212 425.919 56.7386H456.937Z" fill="#6AB868"></path>
    <path d="M499.302 42.3649C501.571 38.2041 503.841 35.178 506.867 32.9085C509.893 30.6389 513.297 29.5042 517.08 29.5042C520.106 29.5042 522.754 30.2607 524.645 31.3954L523.51 43.4997C523.132 44.2562 523.132 45.0128 522.375 45.0128C521.997 45.391 521.241 45.391 520.862 45.391C520.106 45.391 519.349 45.391 517.836 45.0128C516.701 44.6345 515.188 44.6345 514.054 44.6345C512.162 44.6345 510.649 45.0128 509.136 45.391C507.623 45.7693 506.489 46.5258 505.354 47.6606C504.219 48.7953 503.084 49.9301 502.328 51.4432C501.571 52.9562 500.815 54.4692 500.058 56.3605V98.3472C490.98 98.3472 483.793 91.1603 483.793 82.0821V30.6389H493.249C494.762 30.6389 496.276 31.0172 496.654 31.3954C497.41 32.152 497.789 32.9085 498.167 34.4215L499.302 42.3649Z" fill="#6AB868"></path>
    <path d="M549.988 0V98.3473C540.91 98.3473 533.723 91.1604 533.723 82.0821V0H549.988Z" fill="#6AB868"></path>
    <path d="M596.514 29.5042C601.431 29.5042 605.97 30.2607 610.131 31.7737C614.292 33.2867 617.696 35.5563 620.723 38.5824C623.749 41.6084 626.018 45.391 627.531 49.5519C629.044 53.7127 629.801 58.6301 629.801 63.9257C629.801 69.2213 629.044 74.1387 627.531 78.6778C626.018 82.8386 623.749 86.6212 620.723 89.6473C617.696 92.6734 614.292 94.9429 610.131 96.8342C605.97 98.3472 601.431 99.1038 596.514 99.1038C591.597 99.1038 586.679 98.3472 582.518 96.8342C578.357 95.3212 574.953 92.6734 571.927 89.6473C568.901 86.6212 566.631 82.8386 565.118 78.6778C563.605 74.5169 562.849 69.5996 562.849 63.9257C562.849 58.6301 563.605 53.7127 565.118 49.5519C566.631 45.391 568.901 41.6084 571.927 38.5824C574.953 35.5563 578.357 33.2867 582.518 31.7737C586.679 30.2607 591.218 29.5042 596.514 29.5042ZM596.514 86.9995C602.188 86.9995 606.349 85.1082 608.996 81.3256C611.644 77.543 613.157 71.8691 613.157 64.6822C613.157 57.4953 611.644 51.8214 608.996 48.0388C606.349 44.2562 602.188 42.3649 596.514 42.3649C590.84 42.3649 586.679 44.2562 583.653 48.0388C581.005 51.8214 579.492 57.4953 579.492 64.6822C579.492 71.8691 581.005 77.543 583.653 81.3256C586.301 85.1082 590.84 86.9995 596.514 86.9995Z" fill="#6AB868"></path>
    <path d="M691.079 45.0128C690.7 45.7693 689.944 46.1475 689.566 46.5258C689.187 46.9041 688.431 46.904 687.674 46.904C686.918 46.904 686.161 46.5258 685.405 46.1475C684.648 45.7693 683.513 45.0128 682.379 44.2562C681.244 43.4997 680.109 43.1215 678.596 42.3649C677.083 41.9867 675.192 41.6084 672.922 41.6084C669.896 41.6084 667.627 41.9867 665.357 43.1215C663.087 44.2562 661.574 45.7693 660.061 47.6606C658.548 49.5519 657.414 51.8214 657.035 54.8475C656.279 57.4953 655.901 60.8996 655.901 64.304C655.901 68.0865 656.279 71.1126 657.035 74.1387C657.792 76.7865 658.927 79.4343 660.44 81.3256C661.953 83.2169 663.844 84.7299 665.735 85.8647C667.627 86.9995 670.274 87.3777 672.922 87.3777C675.57 87.3777 677.461 86.9995 679.353 86.243C680.866 85.4864 682.379 84.7299 683.513 83.9734C684.648 83.2169 685.405 82.4604 686.539 81.7039C687.296 80.9473 688.431 80.5691 689.187 80.5691C690.7 80.5691 691.457 80.9473 692.213 82.0821L696.752 88.1342C694.861 90.4038 692.97 91.9168 690.7 93.4299C688.431 94.9429 686.539 96.0777 684.27 96.8342C682 97.5907 679.731 98.3472 677.083 98.7255C674.813 99.1038 672.166 99.1038 669.896 99.1038C665.735 99.1038 661.574 98.3472 658.17 96.8342C654.388 95.3212 651.361 93.0516 648.335 90.0255C645.688 86.9995 643.418 83.2169 641.905 79.056C640.392 74.5169 639.635 69.5996 639.635 64.304C639.635 59.3866 640.392 54.8475 641.905 50.3084C643.418 46.1475 645.309 42.3649 648.335 39.3389C650.983 36.3128 654.388 33.665 658.548 32.152C662.709 30.2607 667.248 29.5042 672.544 29.5042C677.461 29.5042 682 30.2607 685.783 31.7737C686.918 32.152 688.431 32.9085 689.566 33.665C692.97 35.9345 693.726 41.2302 691.079 45.0128Z" fill="#6AB868"></path>
    <path d="M722.852 0V56.3605H725.878C727.013 56.3605 727.77 56.3605 728.526 55.9823C729.283 55.604 729.661 55.2258 730.418 54.091L747.439 33.2868C748.196 32.5303 748.952 31.7737 749.709 31.0172C750.465 30.639 751.6 30.2607 753.113 30.2607H768.243L747.061 55.604C745.548 57.4953 744.035 59.0084 742.144 60.1431C742.9 60.8997 744.035 61.6562 744.791 62.4127C745.548 63.1692 746.304 64.304 747.061 65.4388L769.756 98.3473H755.004C753.87 98.3473 752.735 97.969 751.6 97.5908C750.844 97.2125 750.087 96.456 749.331 95.3212L731.931 69.5996C731.174 68.4648 730.796 68.0866 730.039 67.7083C729.283 67.3301 728.526 67.33 727.013 67.33H723.231V98.3473C714.152 98.3473 706.965 91.1604 706.965 82.0821V0H722.852Z" fill="#6AB868"></path>
    <path d="M310.172 133.147C309.794 133.903 309.416 134.66 308.659 134.66C308.281 135.038 307.524 135.038 306.768 135.038C306.011 135.038 305.255 134.66 304.12 134.282C303.364 133.525 302.229 133.147 300.716 132.39C299.581 131.634 298.068 130.877 296.177 130.499C294.664 129.742 292.394 129.742 290.124 129.742C288.233 129.742 286.342 130.121 284.829 130.499C283.316 130.877 281.803 131.634 281.046 132.39C279.911 133.147 279.155 134.282 278.777 135.416C278.398 136.551 278.02 138.064 278.02 139.577C278.02 141.468 278.398 142.982 279.533 144.116C280.668 145.251 281.803 146.386 283.694 147.142C285.585 147.899 287.477 148.655 289.746 149.412C292.016 150.168 294.285 150.925 296.555 151.681C298.824 152.438 301.094 153.573 303.363 154.329C305.633 155.464 307.524 156.599 309.416 158.49C311.307 160.003 312.442 161.894 313.576 164.542C314.711 166.812 315.09 169.838 315.09 172.864C315.09 176.647 314.333 179.673 313.198 183.077C312.063 186.103 310.172 189.129 307.903 191.399C305.633 193.668 302.607 195.559 299.203 197.073C295.798 198.586 292.016 198.964 287.477 198.964C284.829 198.964 282.559 198.586 279.911 198.207C277.264 197.829 274.994 197.073 272.725 195.938C270.455 195.181 268.185 194.046 266.294 192.533C264.403 191.399 262.512 189.886 260.999 188.373L265.538 181.186C265.916 180.807 266.294 180.051 267.051 180.051C267.807 179.673 268.185 179.673 268.942 179.673C269.698 179.673 270.833 180.051 271.968 180.807C273.103 181.564 274.238 182.32 275.751 183.455C277.264 184.212 278.777 185.346 281.046 186.103C282.938 186.86 285.207 187.238 288.233 187.238C292.394 187.238 295.798 186.103 298.068 184.212C300.337 182.32 301.472 179.294 301.472 175.512C301.472 173.242 301.094 171.729 299.959 170.216C298.824 168.703 297.69 167.947 295.798 166.812C293.907 166.055 292.016 165.299 289.746 164.542C287.477 163.786 285.207 163.407 282.938 162.651C280.668 161.894 278.398 161.138 276.129 160.003C273.859 158.868 271.968 157.734 270.077 155.842C268.185 154.329 267.051 152.06 265.916 149.79C264.781 147.142 264.403 144.116 264.403 140.712C264.403 137.686 265.159 135.038 266.294 132.012C267.429 129.364 269.32 126.716 271.212 124.825C273.481 122.556 276.129 121.043 279.533 119.529C282.938 118.395 286.342 117.638 290.881 117.638C295.42 117.638 299.959 118.395 303.742 119.908C307.903 121.421 310.929 123.312 313.955 125.96L310.172 133.147Z" fill="#6AB868"></path>
    <path d="M343.081 130.499V152.816H371.072V164.164H343.081V186.86H378.637V198.586H327.95V118.773H378.259V130.499H343.081Z" fill="#6AB868"></path>
    <path d="M466.015 158.869C466.015 164.542 464.88 170.216 462.989 175.134C461.097 180.051 458.45 184.59 454.667 187.994C451.263 191.777 446.724 194.425 441.806 196.694C436.889 198.586 431.215 199.72 425.163 199.72C419.111 199.72 413.437 198.586 408.519 196.694C403.602 194.803 399.441 191.777 395.659 187.994C392.254 184.212 389.228 180.051 387.337 175.134C385.446 170.216 384.311 164.542 384.311 158.869C384.311 153.195 385.446 147.521 387.337 142.603C389.228 137.686 391.876 133.147 395.659 129.743C399.063 125.96 403.602 123.312 408.519 121.043C413.437 119.151 419.111 118.017 425.163 118.017C429.324 118.017 433.106 118.395 436.511 119.53C439.915 120.286 443.319 121.799 446.345 123.69C449.371 125.582 452.019 127.473 454.289 130.121C456.558 132.39 458.828 135.416 460.341 138.443C461.854 141.469 463.367 144.873 464.123 148.277C465.637 150.925 466.015 154.708 466.015 158.869ZM450.884 158.869C450.884 154.329 450.128 150.547 448.993 147.143C447.858 143.738 445.967 140.712 444.076 138.443C441.806 136.173 439.158 134.282 436.132 132.769C433.106 131.634 429.324 130.877 425.541 130.877C421.759 130.877 417.976 131.634 414.95 132.769C411.924 133.903 409.276 135.795 407.006 138.443C404.737 140.712 403.224 143.738 402.089 147.143C400.954 150.547 400.198 154.708 400.198 158.869C400.198 163.408 400.954 167.19 402.089 170.595C403.224 173.999 405.115 177.025 407.006 179.295C409.276 181.564 411.924 183.455 414.95 184.968C417.976 186.103 421.759 186.86 425.541 186.86C429.324 186.86 433.106 186.103 436.132 184.968C439.158 183.834 441.806 181.942 444.076 179.295C446.345 177.025 447.858 173.999 448.993 170.595C450.506 167.19 450.884 163.029 450.884 158.869Z" fill="#6AB868"></path>
    <path d="M168.325 233.008C158.112 236.412 156.221 257.973 162.651 248.894C170.973 237.168 189.508 251.542 180.429 266.673C173.999 277.264 155.086 271.212 149.034 260.62C143.36 250.029 133.904 234.521 114.234 233.008C94.1865 259.486 62.0345 276.507 25.7216 278.02C32.9085 289.368 46.9041 292.772 57.4953 292.772C74.8953 292.772 97.969 274.616 111.208 274.616C125.582 274.616 147.521 292.772 164.921 292.772C178.538 292.772 197.451 287.477 201.234 267.051C206.908 239.438 181.186 228.468 168.325 233.008Z" fill="#652C83"></path>
    <path d="M221.281 1.89136H0V63.9258C6.80866 62.791 13.6173 62.0345 20.426 62.0345C29.8824 62.0345 38.9607 63.1693 48.0389 65.0606C73.0039 70.7345 93.8082 83.9735 108.939 100.995H220.903V1.89136H221.281Z" fill="#652C83"></path>
    <path d="M221.281 107.426H114.234C124.825 121.043 131.634 136.93 134.282 153.951C167.569 153.195 197.451 150.547 220.903 145.63V107.426H221.281Z" fill="#652C83"></path>
    <path d="M46.5258 72.2473C37.8259 70.356 29.1259 69.2212 20.8042 69.2212C13.9956 69.2212 6.80866 69.9777 0.378259 71.1125V85.4863C13.6173 82.8385 27.6129 82.8385 41.9867 86.2428C91.1603 97.5906 121.421 144.495 109.317 190.642C96.8342 236.033 48.4171 264.024 0 254.19V268.564C6.80866 269.698 13.9956 270.455 20.8042 270.455C68.8431 270.455 112.721 239.816 124.825 194.047C138.821 140.334 104.021 85.8646 46.5258 72.2473Z" fill="#652C83"></path>
    <path d="M0 314.333L11.726 268.942L0.378259 267.051H0V314.333H0Z" fill="#652C83"></path>
    <path d="M41.6085 86.2431C27.6129 82.8388 13.2391 82.8388 0 85.4866V254.19C48.4171 264.025 96.8342 236.034 108.56 190.643C121.043 144.495 90.7821 97.5909 41.6085 86.2431Z" fill="#6AB868"></path>
  </g>
  <defs>
    <clipPath id="clip0_356_3">
      <rect width="769" height="314.333" fill="white"></rect>
    </clipPath>
  </defs>
</svg>
